:SAMPLES-PER-SECOND 30
:FULLY-SPECIFIED
:DEGREES
389
root  -24.69 38.7778 0.180248 96.8198 -86.8791 -103.835
RightUpLeg  -6.22031 -7.6586 3.61297
RightLeg  26.452 1.34551 0.54265
RightFoot  -12.5294 -0.127726 -4.17503
RightToes  -1.33073e-015 0 -3.6325e-017
Spine  7.0282 1.5882 18.7244
Spine1  7.69552 5.15286 -6.59105
HEad  1.33775 -6.1634 -4.13001
LeftShoulder1  -0.540441 4.88924 -32.8386
LeftArm  10.4245 14.4344 -40.7706
LeftForeArm  23.5775 -18.6667 -5.64388
LeftHand  -0.156742 9.28181 -2.95018
RightShoulder  -0.87357 -5.91935 29.5695
RightArm  15.4097 12.495 45.648
RightForeArm  12.7234 7.06323 8.13342
RightHand  -0.30015 5.77734 -3.4451
LeftUpLeg  -17.9896 2.50422 3.95965
LeftLeg  59.0703 -2.5147 -3.98476
LeftFoot  0.83609 0.0999899 -0.962691
LeftToes  -1.63346e-009 7.54925e-011 9.86887e-012
390
root  -26.0791 38.9853 0.0926118 109.382 -87.2277 -116.452
RightUpLeg  -2.65772 -7.75198 2.72396
RightLeg  24.2995 1.99683 0.886517
RightFoot  -13.8262 -0.181281 -4.04681
RightToes  -1.33073e-015 0 -3.6325e-017
Spine  6.19539 2.37385 18.3357
Spine1  8.65914 5.86746 -7.25437
HEad  1.06577 -6.56083 -4.20039
LeftShoulder1  -0.3687 4.45608 -32.5941
LeftArm  7.74341 14.8341 -40.8019
LeftForeArm  23.3184 -17.9475 -5.88463
LeftHand  -0.0777758 8.18141 -1.32374
RightShoulder  -0.807489 -5.78286 28.7929
RightArm  15.8888 16.5107 47.4528
RightForeArm  10.2421 8.9005 7.96809
RightHand  -0.322076 5.98695 -3.61228
LeftUpLeg  -19.8684 3.96898 3.42008
LeftLeg  50.3365 -3.20096 -3.74407
LeftFoot  -0.770717 0.00205739 0.0103576
LeftToes  -1.63346e-009 7.54925e-011 9.86887e-012
391
root  -27.4352 39.1496 0.0114046 118.115 -87.3565 -125.166
RightUpLeg  0.974176 -7.95542 2.03328
RightLeg  21.7175 2.56133 1.12113
RightFoot  -14.7948 -0.222769 -4.06426
RightToes  -1.33073e-015 0 -3.6325e-017
Spine  5.94731 2.80276 17.6929
Spine1  8.65213 6.1096 -7.69597
HEad  1.38722 -7.32506 -4.04144
LeftShoulder1  -0.376276 4.47487 -32.6201
LeftArm  6.61214 15.316 -40.4226
LeftForeArm  23.1821 -17.9621 -5.75941
LeftHand  -0.0561375 7.80836 -0.624062
RightShoulder  -0.711995 -5.57441 27.7394
RightArm  16.8772 20.5529 49.5097
RightForeArm  7.91003 10.7099 7.68837
RightHand  -0.32926 6.59616 -3.53299
LeftUpLeg  -20.4172 5.87624 2.99095
LeftLeg  38.6014 -3.04404 -2.25387
LeftFoot  -0.899492 0.0443982 -0.406372
LeftToes  -1.63346e-009 7.54925e-011 9.86887e-012
392
root  -28.7937 39.2125 -0.024811 122.708 -87.1291 -129.58
RightUpLeg  4.38167 -7.92956 1.72666
RightLeg  19.1862 2.90889 1.21862
RightFoot  -15.721 -0.264278 -4.13215
RightToes  -1.33073e-015 0 -3.6325e-017
Spine  5.57056 3.04603 17.8027
Spine1  8.65338 6.37127 -8.82624
HEad  1.76515 -7.30024 -4.0294
LeftShoulder1  -0.418419 4.59276 -32.2752
LeftArm  5.34156 15.6826 -40.1663
LeftForeArm  24.0491 -17.63 -5.7975
LeftHand  -0.0590939 7.71513 -0.774306
RightShoulder  -0.683223 -5.49886 27.5462
RightArm  18.333 24.9324 51.0956
RightForeArm  4.98286 12.304 7.4734
RightHand  -0.385563 7.53961 -3.80821
LeftUpLeg  -19.86 8.31147 2.77608
LeftLeg  24.882 -2.80453 -1.00739
LeftFoot  -0.263732 0.200048 -2.05741
LeftToes  -1.63346e-009 7.54925e-011 9.86887e-012
393
root  -30.1505 39.2537 -0.0480006 126.543 -87.0851 -133.361
RightUpLeg  8.12043 -7.98967 1.14659
RightLeg  16.2213 3.34673 1.2986
RightFoot  -16.5317 -0.281101 -3.74558
RightToes  -1.33073e-015 0 -3.6325e-017
Spine  5.10044 3.35078 17.1823
Spine1  9.06503 6.56274 -9.16702
HEad  2.04204 -7.26623 -3.79291
LeftShoulder1  -0.457169 4.68733 -32.4861
LeftArm  5.68912 15.9339 -39.6315
LeftForeArm  23.8877 -17.6546 -5.8126
LeftHand  -0.0913564 8.68024 -1.45126
RightShoulder  -0.57922 -5.24115 26.6064
RightArm  18.6753 28.9546 52.9864
RightForeArm  2.89974 13.2924 7.13855
RightHand  -0.513728 8.24622 -4.75031
LeftUpLeg  -18.2538 8.83662 2.66356
LeftLeg  10.5971 -1.08979 -0.353758
LeftFoot  -0.632093 0.27144 -2.85232
LeftToes  -1.63346e-009 7.54925e-011 9.86887e-012
394
root  -31.535 39.1716 -0.0596093 130.158 -86.9854 -137.037
RightUpLeg  11.5591 -7.64345 0.894349
RightLeg  14.125 3.32292 0.881352
RightFoot  -17.761 -0.289928 -3.01825
RightToes  -1.33073e-015 0 -3.6325e-017
Spine  4.60729 3.57281 16.904
Spine1  9.76402 6.97092 -10.1033
HEad  2.51302 -7.58513 -3.29526
LeftShoulder1  -0.417781 4.59623 -32.1088
LeftArm  3.38497 15.8445 -39.6857
LeftForeArm  25.8021 -16.6226 -6.09771
LeftHand  -0.114513 9.23088 -1.82997
RightShoulder  -0.516957 -5.06033 26.3866
RightArm  19.0462 33.4204 54.501
RightForeArm  2.0602 13.4363 7.12542
RightHand  -0.530862 9.11207 -4.62387
LeftUpLeg  -16.4707 4.79469 3.97893
LeftLeg  -0.822803 4.98393 -0.559409
LeftFoot  -1.5575 0.298525 -3.39836
LeftToes  -1.63346e-009 7.54925e-011 9.86887e-012
